# xmcd
#
# Track frame offsets:
# 150
# 17511
# 28439
# 46759
# 67844
# 89487
# 108630
# 129074
# 148343
# 166562
#
# Disc length: 2447 seconds
#
#
# Revision: 0
# Processed by: cddbd v1.5.2PL0 Copyright (c) Steve Scherf et al.
# Submitted via: FreeRIP 2.60 
#
DISCID=7c098d0a
DTITLE=Sherry Kennedy - Shades of Jazz and Blues
DYEAR=2005
DGENRE=Jazz
TTITLE0=Summertime
TTITLE1=How Deep is the Ocean
TTITLE2=When I Fall in Love
TTITLE3=It's Probably Me
TTITLE4=Song for You
TTITLE5=Moon Over Bourbon Street
TTITLE6=God Bless the Child
TTITLE7=Stormy Monday
TTITLE8=Cry Me A River
TTITLE9=Nature Boy
EXTD=Executive Producer Sherry Kennedy/Sheaken Music Inc.\nProduced and Arranged by Greg Gunhold\nCruel Tea Studios
EXTT0=
EXTT1=
EXTT2=
EXTT3=
EXTT4=
EXTT5=
EXTT6=
EXTT7=
EXTT8=
EXTT9=
PLAYORDER=
